<svg width="180" height="180" viewBox="0 0 180 180" fill="none" xmlns="http://www.w3.org/2000/svg">
<path d="M180 90C180 139.706 139.706 180 90 180C40.2944 180 0 139.706 0 90C0 40.2944 40.2944 0 90 0C139.706 0 180 40.2944 180 90Z" fill="black"/>
<path d="M90 45C81.0999 45 72.3996 47.6392 64.9994 52.5839C57.5991 57.5285 51.8314 64.5566 48.4254 72.7792C45.0195 81.0019 44.1283 90.0499 45.8647 98.7791C47.601 107.508 51.8869 115.526 58.1802 121.82C64.4736 128.113 72.4918 132.399 81.221 134.135C89.9501 135.872 98.9981 134.98 107.221 131.575C115.443 128.169 122.471 122.401 127.416 115.001C132.361 107.6 135 98.9002 135 90C134.987 78.0691 130.242 66.6305 121.806 58.1941C113.369 49.7577 101.931 45.0126 90 45ZM123.91 72.6923H108.58C106.813 65.7411 103.847 59.1518 99.8135 53.2212C104.966 54.6059 109.772 57.0536 113.922 60.407C118.072 63.7604 121.474 67.9452 123.91 72.6923ZM90 51.9707C95.1923 57.5957 99.0865 64.7567 101.41 72.6923H78.5899C80.9135 64.7567 84.8077 57.6043 90 51.9707ZM76.1539 90C76.1544 86.5205 76.4439 83.047 77.0192 79.6154H102.981C104.129 86.4909 104.129 93.5091 102.981 100.385H77.0192C76.4439 96.953 76.1544 93.4795 76.1539 90ZM78.5899 107.308H101.41C99.0865 115.243 95.1923 122.396 90 128.029C84.8077 122.396 80.9135 115.243 78.5899 107.308ZM99.8135 126.779C103.847 120.848 106.813 114.259 108.58 107.308H123.91C121.474 112.055 118.072 116.24 113.922 119.593C109.772 122.946 104.966 125.394 99.8135 126.779ZM109.995 100.385C111.027 93.5 111.027 86.4999 109.995 79.6154H126.636C128.557 86.4052 128.557 93.5948 126.636 100.385H109.995Z" fill="url(#paint0_linear_80417_66)"/>
<defs>
<linearGradient id="paint0_linear_80417_66" x1="90" y1="0" x2="90" y2="180" gradientUnits="userSpaceOnUse">
<stop stop-color="white"/>
<stop offset="1" stop-color="#FAFAFA" stop-opacity="0.9"/>
</linearGradient>
</defs>
</svg>
